<?xml version="1.0" encoding="iso-8859-1"?>
<!-- Generator: Adobe Illustrator 16.0.0, SVG Export Plug-In . SVG Version: 6.00 Build 0)  -->
<!DOCTYPE svg PUBLIC "-//W3C//DTD SVG 1.1//EN" "http://www.w3.org/Graphics/SVG/1.1/DTD/svg11.dtd">
<svg version="1.1" id="Capa_1" xmlns="http://www.w3.org/2000/svg" xmlns:xlink="http://www.w3.org/1999/xlink" x="0px" y="0px"
	 width="189.192px" height="189.192px" viewBox="0 0 189.192 189.192" style="enable-background:new 0 0 189.192 189.192;"
	 xml:space="preserve">
<g>
	<path d="M99.58,56.247c-1.858-0.802-3.632-0.348-4.897,0.673c1.308-4.401-0.048-7.46,8.97-8.111
		c1.882-0.136,3.45-1.469,3.455-3.455c0.027-9.715,2.73-15.701,9.444-22.845c1.829-1.946,0.726-6.093-2.387-5.761
		c-10.991,1.175-17.368-3.337-19.848-14.35c-0.618-2.745-3.823-2.97-5.684-1.501c-8.105,6.398-12.322,6.024-21.922,3.33
		c-2.592-0.728-4.742,1.701-4.184,4.184c2.948,13.125-5.409,17.004-16.838,14.726c-3.008-0.599-6.231,3.376-3.323,5.708
		c6.186,4.962,6.099,13.957-1.451,17.698c-3.31,1.64-1.471,6.342,1.763,6.51c10.011,0.517,19.157,3.051,23.297,13.152
		C37.752,91.251,35.396,168.853,76.771,184.827c33.657,12.995,69.409-3.744,72.942-40.62
		C152.942,110.503,130.945,69.783,99.58,56.247z M86.688,93.104c2.306,4.86,1.086,9.542-3.75,14.04
		c-4.838-2.213-8.439-5.703-10.8-10.468c-0.204-0.318-0.474-0.56-0.768-0.753c0.037-0.009,0.07-0.009,0.107-0.018
		c4.598-1.178,6.595-5.691,7.401-10.536c2.02,2.061,4.414,3.646,7.336,6.039c-0.011,0.292,0.01,0.595,0.12,0.92
		c0.117,0.213,0.187,0.424,0.291,0.637c-0.006,0.003-0.013,0.005-0.019,0.008C86.632,93.02,86.662,93.057,86.688,93.104z
		 M103.101,88.138c0.13,0.228,0.198,0.422,0.312,0.643c-0.012,0.005-0.023,0.01-0.036,0.015c0.199,0.406,0.401,0.763,0.602,1.144
		c2.3,5.28-0.039,8.028-7.107,8.196c-1.393-1.397-2.604-2.921-3.673-4.54c0.472-0.507,0.805-1.171,0.848-1.984
		c0.165-3.139,0.681-5.963,1.067-8.701c2.425,2.186,5.177,3.45,8.103,3.7C103.047,87.076,102.961,87.582,103.101,88.138z
		 M108.369,110.649c2.248,1.774,4.653,3.345,7.087,5.229c-0.067,0.291-0.112,0.6-0.083,0.963c0.773,9.313-9.649,13.156-16.521,7.936
		c-1.618-1.23-3.849,0.135-4.387,1.784c-4.51,13.833-13.835,10.79-19.074,0.736c3.389-2.235,6.043-5.911,8.017-9.603
		C94.677,128.445,106.548,125.351,108.369,110.649z M107.616,102.123c0.861-1.273,1.476-2.938,1.735-5.033
		c2.732,2.291,5.817,3.135,9.478,3.105c-0.577,0.505-1.013,1.175-1.083,1.928c-0.241,2.628-0.695,5.237-1.193,7.836
		c-3.165-2.331-6.374-4.644-8.808-7.724C107.707,102.188,107.656,102.167,107.616,102.123z M112.927,135.058
		c-3.26,7.68-8.688,9.49-15.755,2.984c-0.604-0.555-1.298-0.768-1.967-0.748c1.297-1.461,2.489-3.234,3.506-5.386
		C104.049,135.223,109.002,136.2,112.927,135.058z M92.574,139.685c-0.016,0.098-0.052,0.185-0.059,0.286
		c-3.915,2.647-7.83,5.293-11.745,7.94c-3.566-2.403-6.399-5.489-8.501-9.259c-0.241-0.369-0.56-0.614-0.903-0.807
		c0.607-0.921,1.175-1.918,1.663-3.068C78.69,142.295,86.43,144.093,92.574,139.685z M93.703,101.676
		c3.208,2.606,6.478,3.743,9.208,3.394c-0.259,8.497-9.905,11.975-16.254,7.318c0.202-0.044,0.402-0.071,0.607-0.127
		C92.43,110.84,93.832,106.419,93.703,101.676z M79.939,111.646c-0.036,0.074-0.087,0.143-0.117,0.219
		c-5.487,13.792-18.222,15.911-23.51,0.492c-0.019-0.056-0.056-0.096-0.082-0.146c7.442-2.707,9.932-3.821,13.844-9.738
		C72.639,106.111,75.976,109.895,79.939,111.646z M74.113,148.629c8.7,7.547,19.848,9.068,23.064-3.628
		c5.682,3.977,10.416,4.38,14.255,1.576c-0.003,0.152-0.032,0.307-0.009,0.458c2.307,15.377-10.251,14.352-16.318,7.792
		c-1.232-1.332-3.474-0.93-4.363,0.562c-5.515,9.25-14.927,10.179-24.077,4.141c-0.228-0.151-0.45-0.236-0.663-0.275
		C70.623,155.871,73.628,153.118,74.113,148.629z M93.561,161.055c4.669,3.914,9.577,4.724,13.706,3.373
		c-0.066,0.243-0.099,0.501-0.083,0.774c0.974,17.257-12.831,9.358-20.135,1.576C89.369,165.544,91.556,163.663,93.561,161.055z
		 M112.608,169.828c4.096,1.974,7.935,2.882,11.483,2.616c-4.558,3.168-9.871,5.371-15.716,6.514
		C110.585,177.33,112.136,174.408,112.608,169.828z M134.781,157.425c-5.926,10.81-13.206,11.532-23.419,5.378
		c-0.165-0.099-0.342-0.158-0.52-0.216c2.901-2.148,5.063-5.568,5.897-9.8c7.406,5.498,16.494,4.867,22.041-1.352
		c-0.437,1.602-0.981,3.124-1.584,4.604C136.281,156.003,135.362,156.366,134.781,157.425z M139.677,138.905
		c-5.527,10.523-14.614,16.701-23.498,5.361c-0.49-0.625-1.051-0.916-1.611-0.969c1.055-1.479,2.025-3.259,2.904-5.354
		c8.121,5.852,15.301,5.985,22.587,0.468C139.924,138.555,139.786,138.696,139.677,138.905z M139.97,131.938
		c-5.07,5.396-12.34,5.37-21.836-0.141c-0.046-0.041-0.099-0.063-0.146-0.101c1.609-1.954,2.743-4.617,3.221-8.007
		c5.511,3.652,10.562,1.408,16.817-2.945C138.92,124.439,139.544,128.182,139.97,131.938z M135.895,113.17
		c0.181,0.544,0.324,1.098,0.495,1.645c-4.701,3.435-10.19,7.248-15.392,0.561c0.366-1.841,0.732-3.685,1.071-5.533
		c2.919,2.608,6.264,1.695,12.39,3.349C134.997,113.336,135.465,113.29,135.895,113.17z M133.789,107.412
		c-4.803-0.846-8.253-0.361-10.961-6.665c-0.144-0.335-0.327-0.599-0.534-0.807c2.228-0.29,4.635-0.779,7.315-1.439
		C131.161,101.392,132.552,104.371,133.789,107.412z M126.638,93.43c-8.128,1.578-13.771,2.146-18.469-7.347
		c2.862-0.86,5.809-2.676,8.72-5.554C120.538,84.491,123.773,88.838,126.638,93.43z M51.403,47.513
		c4.692-5.03,5.221-11.243,1.624-17.091C63.6,29.8,70.418,23.543,69.82,12.045c7.845,1.741,12.773,1.13,19.335-3.201
		c3.189,8.425,9.227,13.492,17.8,14.599c-4.168,5.647-6.161,11.215-6.623,18.822C91.281,43.657,89.22,48.164,88.05,57.97
		c-0.024,0.199,0.025,0.362,0.041,0.542c-7.155-0.649-13.555,1.362-19.097,5.295C66.259,55.028,59.654,49.86,51.403,47.513z
		 M96.455,67.505c1.315,0.365,2.489-0.17,3.275-1.06c4.657,2.786,8.957,6.088,12.903,9.778c-8.607,7.671-15.134,3.874-18.593-6.466
		c-1.489-3.606-7.353-2.216-6.007,1.656c0.127,0.366,0.277,0.695,0.412,1.049c1.731,4.375,0.97,8.896,0.254,13.434
		c-4.143-3.062-7.469-5.298-9.553-11.886c-0.964-3.046-5.979-2.644-5.761,0.78c0.265,4.164,0.298,7.711-0.671,11.834
		c-2.14,9.103-8.171,4.427-11.714,0.522C68.3,72.325,80.437,63.06,96.455,67.505z M55.801,101.67
		c0.923-3.718,2.067-7.302,3.448-10.655c2.37,2.893,5.297,5.049,8.98,5.217c-0.125,0.134-0.246,0.274-0.344,0.444
		c-1.669,2.895-14.481,18.578-11.872,5.647C56.068,102.054,55.957,101.841,55.801,101.67z M53.907,111.809
		c0.124,0.136,0.273,0.25,0.433,0.35c-0.065,0.137-0.109,0.291-0.102,0.479c0.296,8.3,3.568,15.334,12.462,16.673
		c0.66,0.1,1.297,0.127,1.924,0.123c-2.065,8.119-5.84,10.785-14.202,9.534C52.898,130.168,52.752,120.8,53.907,111.809z
		 M55.199,142.905c5.187,1.239,9.354,0.795,12.58-1.365c2.74,8.399-1.249,12.488-6.386,17.982
		C58.618,154.55,56.558,148.91,55.199,142.905z M62.66,161.66c0.576-0.411,1.113-0.794,1.654-1.181
		c-0.191,0.67-0.058,1.457,0.634,1.985c5.265,4.021,10.439,6.153,15.254,6.085c-0.124,2.635-0.461,5.254-0.68,7.889
		C72.412,173.504,66.82,168.297,62.66,161.66z M83.802,177.909c-0.552-0.145-1.07-0.34-1.606-0.51
		c0.482-2.347,1.07-4.672,1.66-6.996c4.177,4.379,9.583,8.004,14.595,9.481C93.744,179.851,88.831,179.219,83.802,177.909z"/>
</g>
<g>
</g>
<g>
</g>
<g>
</g>
<g>
</g>
<g>
</g>
<g>
</g>
<g>
</g>
<g>
</g>
<g>
</g>
<g>
</g>
<g>
</g>
<g>
</g>
<g>
</g>
<g>
</g>
<g>
</g>
</svg>
