<?xml version="1.0" encoding="iso-8859-1"?>
<!-- Generator: Adobe Illustrator 16.0.0, SVG Export Plug-In . SVG Version: 6.00 Build 0)  -->
<!DOCTYPE svg PUBLIC "-//W3C//DTD SVG 1.1//EN" "http://www.w3.org/Graphics/SVG/1.1/DTD/svg11.dtd">
<svg version="1.1" id="Capa_1" xmlns="http://www.w3.org/2000/svg" xmlns:xlink="http://www.w3.org/1999/xlink" x="0px" y="0px"
	 width="187.683px" height="187.683px" viewBox="0 0 187.683 187.683" style="enable-background:new 0 0 187.683 187.683;"
	 xml:space="preserve">
<g>
	<g>
		<path d="M186.643,58.047c-2.025-8.333-13.77-5.02-18.486-1.843c-0.104,0.071-0.16,0.162-0.252,0.239
			c0.146-0.965-0.086-1.995-0.971-2.901c-8.62-8.827-18.143-16.578-27.36-24.756c-2.701-2.396-1.83-5.825-0.749-9.361
			c0.131-0.257,0.229-0.533,0.253-0.828c0.477-1.542,0.941-3.089,1.123-4.568c0.973-7.898-5.765-15.901-13.985-13.64
			c-12.028,3.31-20.425,20.012-28.866,28.146C86.767,38.729,75.95,49.459,75.216,64.866c-0.072,1.515,1.204,2.313,2.454,2.294
			c0.425,0.482,0.872,0.947,1.3,1.427c-14.457,9.352-27.926,20.01-41.223,30.934c-10.67,8.765-26.315,18.627-34.156,30.142
			c-4.69,6.887-3.275,12.296,0.789,19.171c7.467,12.631,20.89,25.04,32.184,34.202c3.208,2.602,7.624-1.403,5.475-4.27
			c0.92-3.779,2.216-10.688,5.452-11.826c3.648-1.284,9.705-0.025,13.453,0.108c1.982,0.071,3.635-2.062,3.021-3.966
			c-1.188-2.993-1.94-6.085-2.266-9.271c2.986-0.022,5.958,0.272,8.916,0.905c1.567,0.393,3.606-0.486,3.921-2.226
			c0.696-3.847,1.186-7.641,1.529-11.491c4.608,0.384,9.137,0.896,13.805,0.632c1.768-0.1,3.054-1.353,3.136-3.136
			c0.439-9.585-1.5-10.776,10.048-9.222c2.07,0.277,3.902-0.795,4.003-3.05c0.139-3.144,0.145-5.764-0.241-8.521
			c4.001-0.218,7.796-0.083,11.98,0.423c1.749,0.211,3.349-1.659,3.297-3.297c-0.105-3.278-0.254-6.55-0.598-9.805
			c2.655,1.115,5.309,1.734,7.819,1.467c0.329-0.035,0.617-0.122,0.894-0.22c18.04,7.326,40.227-14.762,49.927-27.935
			C184.154,72.877,188.339,65.024,186.643,58.047z M161.721,58.57c-6.238-1.904-12.466-3.851-18.476-6.443
			c-0.31-0.134-0.604-0.143-0.887-0.105c-1.989-1.813-4.008-3.593-6.08-5.315c7.471,3.983,15.518,8.098,23.494,9.976
			C160.413,57.323,161.088,57.923,161.721,58.57z M148.204,68.344c-3.991,4.32-8.58,7.932-13.126,11.683
			c-10.724-5.887-20.504-13.135-30.871-19.513c6.446-4.741,11.42-11.224,17.353-16.612C131.156,51.302,140.299,59.15,148.204,68.344
			z M131.5,13.579c-1.473-0.535-2.958-1.037-4.409-1.537c-1.088-0.374-2.261-0.782-3.453-1.149
			C127.395,8.934,130.346,10.298,131.5,13.579z M117.829,16.109c0.778-0.996,1.54-1.813,2.292-2.553
			c4.034,1.372,7.9,3.189,11.813,4.872c-0.097,0.915-0.254,1.865-0.536,2.872c-1.915-0.658-3.892-1.177-5.803-1.8
			c-2.729-0.89-5.397-1.922-8.031-3.037C117.656,16.346,117.736,16.229,117.829,16.109z M115.587,19.12
			c4.497,2.471,9.451,4.853,14.28,6.171c-0.021,0.043-0.034,0.084-0.056,0.127c-0.696,1.391-0.635,3.087,0.545,4.22
			c0.857,0.824,1.75,1.608,2.619,2.419c-1.861-0.594-3.696-1.199-5.433-1.883c-5.215-2.053-10.416-4.133-15.639-6.162
			C113.179,22.426,114.375,20.78,115.587,19.12z M108.899,27.396c0.257-0.254,0.472-0.525,0.717-0.783
			c5.41,2.528,10.793,5.116,16.216,7.621c5.252,2.426,11.306,5.916,17.229,6.96c3.048,2.693,6.093,5.39,9.094,8.136
			c-6.57-2.74-13.418-5.124-19.871-7.607c-0.639-0.246-1.162,0.113-1.418,0.624c-2.536-1.988-5.103-3.945-7.697-5.882
			c-1.306-0.975-3.082-0.375-4.184,0.54c-0.254,0.211-0.481,0.455-0.731,0.671c-4.413-2.235-9.019-4.111-13.477-6.29
			C106.159,30.055,107.55,28.721,108.899,27.396z M102.506,33.587c4.119,2.512,8.403,4.803,12.815,6.781
			c-1.387,1.369-2.741,2.781-4.079,4.214c-4.859-1.781-9.772-3.444-14.678-5.122C98.511,37.465,100.509,35.517,102.506,33.587z
			 M93.973,42.144c4.782,2.016,9.611,4.048,14.648,5.228c-1.499,1.583-3.016,3.144-4.614,4.599
			c-1.946-0.252-3.916-0.433-5.817-0.884c-3.128-0.743-6.147-1.93-9.093-3.226C90.623,45.889,92.268,43.994,93.973,42.144z
			 M87.312,50.339c3.601,1.888,7.922,4.045,12.246,5.167c-0.579,0.401-1.144,0.821-1.751,1.187c-2.107,1.265-1.916,3.63-0.694,5.06
			c-0.051-0.018-0.106-0.032-0.158-0.051c-4.511-1.612-8.932-3.534-13.002-6.043C84.951,53.814,86.103,52.059,87.312,50.339z
			 M82.977,57.456c2.951,2.151,6.096,3.992,9.445,5.599c4.288,2.059,9.347,4.76,14.179,5.532
			c6.537,5.726,13.918,10.679,21.326,15.128c-3.226-1.211-6.44-2.36-9.497-3.551c-12.963-5.048-25.852-10.233-37.485-17.852
			C81.518,60.634,82.214,59.025,82.977,57.456z M21.02,157.729c-5.259-5.985-18.744-16.445-9.093-26.255
			c3.425-3.48,7.62-6.464,11.329-9.632C42.692,105.24,63.651,89.697,81.478,71.34c6.916,7.526,14.271,14.653,22.163,21.147
			c1.466,1.206,3.168,2.66,5.018,4.166c-0.251,0.049-0.504,0.114-0.756,0.26c-13.013,7.466-23.002,20.795-34.434,30.479
			c-15.13,12.819-32.079,23.303-47.202,36.132C24.502,161.624,22.751,159.7,21.02,157.729z M103.017,111.654
			c-2.019,0.235-3.65,1.849-3.062,4.019c0.602,2.355,0.891,4.724,0.915,7.105c-3.655-0.359-7.272-0.56-11.001-0.583
			c-1.602-0.011-3.306,1.445-3.152,3.151c1.139,12.665-2.783,9.817-13.502,9.112c-1.792-0.118-3.064,1.53-3.159,3.159
			c-0.131,3.459-0.568,6.875-1.168,10.268c-3.471-0.515-6.74-0.46-10.574-0.318c-1.649,0.061-3.322,1.411-3.199,3.198
			c0.252,3.643,0.759,6.841,1.645,10.159c-12.177,0.544-15.414,2.476-17.955,14.846c-3.695-3.2-7.15-6.587-10.504-10.096
			c29.133-20.496,56.667-40.295,82.601-64.874c0.576-0.546,0.76-1.192,0.712-1.817c1.059,0.805,2.146,1.598,3.258,2.35
			c-0.021,0.12-0.08,0.22-0.087,0.346c-0.16,3.191,0.171,6.388,0.45,9.58C111.149,111.034,107.271,111.156,103.017,111.654z
			 M131.478,101.419c-0.182-0.218-0.373-0.434-0.622-0.625c-3.41-2.617-7.886-3.896-11.617-6.153
			c-2.004-1.212-3.923-2.559-5.812-3.948c3.427,1.902,6.92,3.695,10.414,5.461c3.47,1.753,6.973,3.781,10.576,5.475
			C133.441,101.631,132.462,101.573,131.478,101.419z M141.345,100.394c-4.679-3.285-10.265-5.382-15.41-7.822
			c-6.321-2.998-12.611-6.101-19.063-8.811c-0.708-0.297-1.245,0.096-1.471,0.659c-0.342-0.277-0.686-0.555-1.028-0.831
			c-5.744-4.638-11.281-9.537-16.96-14.259c6.805,4.319,14.004,7.921,21.495,11.309c12.416,5.616,24.877,12.724,37.632,17.39
			C144.833,98.961,143.107,99.801,141.345,100.394z M161.928,86.023c-2.392-0.894-5.172-1.083-7.661-1.722
			c-2.671-0.685-5.316-1.479-7.961-2.259c-1.603-0.472-2.192,1.896-0.678,2.46c2.593,0.965,5.187,1.921,7.816,2.781
			c1.713,0.56,3.544,1.237,5.382,1.64c-2.893,2.615-5.966,5.163-9.185,7.276c-0.029-0.418-0.199-0.825-0.556-1.145
			c-3.603-3.225-7.92-5.675-12.475-7.768c0.438-0.172,0.865-0.396,1.263-0.712c4.271-3.41,8.611-6.647,12.557-10.343
			c2.575,0.537,5.122,1.163,7.649,1.902c2.97,0.87,5.836,2.231,8.924,2.556c0.171,0.018,0.317-0.013,0.466-0.04
			C165.752,82.328,163.874,84.165,161.928,86.023z M169.466,78.724c-0.262,0.248-0.541,0.523-0.81,0.781
			c0.225-0.778,0.011-1.723-0.745-2.169c-4.114-2.426-9.686-3.293-14.749-3.889c0.787-0.842,1.603-1.648,2.335-2.557
			c0.433-0.534,0.67-1.083,0.819-1.633c5.646,1.486,10.582,4.593,16.305,6.001C171.632,76.479,170.593,77.654,169.466,78.724z
			 M174.531,72.697c-0.13-0.2-0.295-0.388-0.53-0.539c-4.951-3.188-11.807-5.041-18.036-5.52c-0.143-0.263-0.26-0.526-0.467-0.784
			c-2.129-2.663-4.403-5.161-6.74-7.591c9.07,4.206,18.683,7.597,28.219,10.388C176.257,70.05,175.421,71.392,174.531,72.697z
			 M178.973,64.274c-2.67-1.028-5.371-1.971-8.096-2.852c1.868-0.544,8.236-2.692,8.712-1.431
			C180.004,61.096,179.536,62.791,178.973,64.274z"/>
		<path d="M64.189,172.503c-1.166-0.837-2.389,0.943-1.477,1.915c3.169,3.378,1.284,7.29-0.106,10.901
			c-0.651,1.69,1.463,2.853,2.81,2.16c2.46-1.265,2.811-4.645,2.819-7.131C68.245,177.177,66.738,174.332,64.189,172.503z"/>
		<path d="M91.9,163.497c-2.268,0.795-4.605,1.436-7.021,1.384c-3.048-0.063-5.484-2.25-7.682-4.073
			c-1.582-1.312-4.245,0.367-3.005,2.318c4.148,6.522,12.98,9.214,19.442,4.484C95.547,166.211,94.489,162.589,91.9,163.497z"/>
		<path d="M113.183,154.36c-1.193-2.903-3.086-5.24-5.752-6.901c-1.76-1.096-3.611,1.39-2.183,2.828
			c1.703,1.714,2.823,3.691,3.442,6.021c0.577,2.176-0.034,4.477,2.059,5.866c0.553,0.367,1.517,0.403,2.063,0
			C115.345,160.312,114.214,156.867,113.183,154.36z"/>
		<path d="M125.092,129.891c-3.588,2.861-6.571,4.259-11.049,2.376c-2.13-0.896-3.113,2.338-1.474,3.496
			c5.155,3.646,12.843,2.54,16.057-3.146C129.963,130.254,127.009,128.362,125.092,129.891z"/>
		<path d="M129.035,118.794c-2.883-0.426-3.896,3.239-1.195,4.34c2.511,1.024,4.659,2.104,6.052,4.532
			c1.215,2.12,1.064,4.966,1.061,7.322c-0.004,2.121,3.21,3.23,4.194,1.136C142.81,128.315,137.314,120.017,129.035,118.794z"/>
	</g>
</g>
<g>
</g>
<g>
</g>
<g>
</g>
<g>
</g>
<g>
</g>
<g>
</g>
<g>
</g>
<g>
</g>
<g>
</g>
<g>
</g>
<g>
</g>
<g>
</g>
<g>
</g>
<g>
</g>
<g>
</g>
</svg>
